inDegrees=yes
name=ik_data_2024_11_07_18_01
DataType=double
version=3
OpenSimVersion=4.5.1
endheader
time	pelvis_tilt	pelvis_list	pelvis_rotation	pelvis_tx	pelvis_ty	pelvis_tz	hip_flexion_r	hip_adduction_r	hip_rotation_r	knee_angle_r	knee_angle_r_beta	ankle_angle_r	subtalar_angle_r	mtp_angle_r	hip_flexion_l	hip_adduction_l	hip_rotation_l	knee_angle_l	knee_angle_l_beta	ankle_angle_l	subtalar_angle_l	mtp_angle_l	lumbar_extension	lumbar_bending	lumbar_rotation	arm_flex_r	arm_add_r	arm_rot_r	elbow_flex_r	pro_sup_r	wrist_flex_r	wrist_dev_r	arm_flex_l	arm_add_l	arm_rot_l	elbow_flex_l	pro_sup_l	wrist_flex_l	wrist_dev_l
10.03773	-3.652265850962928	-7.669532048504395	-41.85347220914122	0	0.9399999999999999	0	85.82356592572249	29.95421340345114	3.734675841931628	83.35661567638786	1.454847396872488	-4.752913900663319	0	0	-0.006069030392082178	-8.504040150833506	-39.99532349522901	0.04871457111283676	0.0008502296596159195	-4.752913900663319	0	0	0	0	0	0	-4.85479926977911	0	61.54473681406727	46.47769179205537	0	0	0	-4.85479926977911	0	61.54473681406727	46.47769179205537	0	0
10.09297	-3.637005951592355	-7.591765219959493	-41.72916588228905	0	0.9399999999999999	0	85.10363052079981	29.96746795225788	4.243510058272653	86.30905191386645	1.506377130171683	-4.754674151548856	0	0	0.008178482816098526	-8.430005862694152	-39.99528832410609	0.04869660494878972	0.0008499160908993453	-4.754674151548856	0	0	0	0	0	0	-4.86367427685148	0	61.56824840223572	46.47102346365588	0	0	0	-4.86367427685148	0	61.56824840223572	46.47102346365588	0	0
10.14879	-3.172904368140871	-7.46009308010194	-41.14672329677504	0	0.9399999999999999	0	83.39580213023132	29.96230881582096	5.713627055558429	88.15675352670524	1.538625606910129	-4.756355189359336	0	0	-0.3470654905251461	-8.02673216009673	-39.9951342935762	0.04917405734477971	0.0008582492072309064	-4.756355189359336	0	0	0	0	0	0	-4.872612090875453	0	61.59139834781956	46.4646051480273	0	0	0	-4.872612090875453	0	61.59139834781956	46.4646051480273	0	0
10.21347	-3.453845402567763	-7.361193718757262	-41.32962865648062	0	0.9399999999999999	0	82.17662129768159	29.97478508616474	6.722391508765216	89.84343129628186	1.568063687409436	-4.757681249885323	0	0	-0.04978363266459554	-8.131471930335515	-39.99517866183243	0.04903299262361129	0.0008557871633881097	-4.757681249885323	0	0	0	0	0	0	-4.879171650480005	0	61.60895481154147	46.45958361012472	0	0	0	-4.879171650480005	0	61.60895481154147	46.45958361012472	0	0
10.21625	-2.654370386842805	-7.18924917502834	-40.13943293842122	0	0.9399999999999999	0	79.50679458304357	29.96329890414697	8.787968186484223	91.10397905146422	1.590064396115991	-4.76040452764848	0	0	-0.7098455184250481	-7.468069599025358	-39.99482513189873	0.05015100851230784	0.0008753002217354749	-4.76040452764848	0	0	0	0	0	0	-4.895683989074298	0	61.64941692025368	46.44899653152046	0	0	0	-4.895683989074298	0	61.64941692025368	46.44899653152046	0	0
10.27525	-2.28470468280297	-6.912349753919789	-39.72469811057882	0	0.9399999999999999	0	77.13209198516005	29.97091594023631	10.80484917455117	91.89238602462051	1.603824693643251	-4.761999611192616	0	0	-0.9253766795493585	-7.019028309609477	-39.99469524229941	0.0501956418144039	0.0008760792198130886	-4.761999611192616	0	0	0	0	0	0	-4.904010472664227	0	61.67118043311643	46.44291219818539	0	0	0	-4.904010472664227	0	61.67118043311643	46.44291219818539	0	0
10.32879	-1.774623332525752	-6.625544944503869	-39.37321572549398	0	0.9399999999999999	0	74.09691328106915	29.97257399407868	13.29732284649731	92.36721018736787	1.612111938651218	-4.763773907067721	0	0	-1.264204946061852	-6.452740345609167	-39.99458436120441	0.04943833177525774	0.0008628616661715808	-4.763773907067721	0	0	0	0	0	0	-4.913326918474558	0	61.69547883466203	46.43613466799403	0	0	0	-4.913326918474558	0	61.69547883466203	46.43613466799403	0	0
10.39369	-1.04234320740385	-6.399468904994543	-38.35799527726329	0	0.9399999999999999	0	70.94171499440414	29.96616125056025	15.36694206075826	91.79525981807069	1.602129521548985	-4.765981868679321	0	0	-1.837466942676388	-5.832795717314498	-39.99419273556441	0.05077551352764781	0.0008861998904483751	-4.765981868679321	0	0	0	0	0	0	-4.927795056213979	0	61.7302478574288	46.42734575838509	0	0	0	-4.927795056213979	0	61.7302478574288	46.42734575838509	0	0
10.39755	-0.8002855584280915	-6.461342328682096	-37.09127523183351	0	0.9399999999999999	0	68.03126456752361	29.94153837906726	17.42319703502596	91.61094132171098	1.598912556915182	-4.768411431135235	0	0	-2.077298405485946	-5.776796676480306	-39.99357607357248	0.05591067874638898	0.0009758254311493033	-4.768411431135235	0	0	0	0	0	0	-4.944872527324844	0	61.77043547099554	46.41750292547984	0	0	0	-4.944872527324844	0	61.77043547099554	46.41750292547984	0	0
10.44802	-0.6890089290833932	-6.380904305185777	-36.71908767411333	0	0.9399999999999999	0	64.77623170426817	29.93536951930739	19.09522871221843	90.30584566431394	1.576134340640124	-4.770660478076263	0	0	-2.138591900965376	-5.660681632076346	-39.99337060056484	0.05725724655509713	0.0009993274730126258	-4.770660478076263	0	0	0	0	0	0	-4.959749443230638	0	61.80644343930051	46.4084356240308	0	0	0	-4.959749443230638	0	61.80644343930051	46.4084356240308	0	0
10.51118	-1.136378423173809	-6.608812682501256	-35.27170309322105	0	0.9399999999999999	0	62.1604397061018	29.83519004740424	19.86476642674277	87.69166661546367	1.530508309001033	-4.771997126291741	0	0	-1.814892295192964	-6.169583037079607	-39.99236862005392	0.06802492377696416	0.001187258893326201	-4.771997126291741	0	0	0	0	0	0	-4.966411339789411	0	61.82392865962786	46.40343985172878	0	0	0	-4.966411339789411	0	61.82392865962786	46.40343985172878	0	0
10.57407	-1.417046375877679	-6.720520719862316	-34.53911751432408	0	0.9399999999999999	0	59.69210451065397	29.56547809243445	21.16423179146589	85.12209635237419	1.485660847548785	-4.773446937476461	0	0	-1.603470741647235	-6.449329676299047	-39.99172566936667	0.07435027772981159	0.001297657146157427	-4.773446937476461	0	0	0	0	0	0	-4.973669539386225	0	61.84296899586695	46.39800967793476	0	0	0	-4.973669539386225	0	61.84296899586695	46.39800967793476	0	0
10.57592	-1.158677269451114	-6.507587849551873	-32.52078973969336	0	0.9399999999999999	0	56.16970229439347	27.32546952548172	22.6618013384408	81.03728395607409	1.414367421907069	-4.77517227735622	0	0	-1.724372283526745	-6.195732318735328	-39.9893950239002	0.09333943280780169	0.001629080424440155	-4.77517227735622	0	0	0	0	0	0	-4.982385330896243	0	61.86579705645967	46.39152424132075	0	0	0	-4.982385330896243	0	61.86579705645967	46.39152424132075	0	0
10.62813	-0.5780381674338221	-6.076289366893543	-30.28552816871447	0	0.9399999999999999	0	52.76909577904095	24.68592987456065	23.64808266433138	77.45725626338424	1.351884151357055	-4.776746974969516	0	0	-2.039070921483169	-5.607854172086637	-39.98467708632353	0.1251261357704575	0.002183863049491935	-4.776746974969516	0	0	0	0	0	0	-4.990400775514678	0	61.88676581362867	46.38558599168163	0	0	0	-4.990400775514678	0	61.88676581362867	46.38558599168163	0	0
10.6941	-0.5617257762035409	-5.801218329433353	-28.79793413319721	0	0.9399999999999999	0	49.93405203900215	23.08688041032814	24.18067432081366	73.61679582830666	1.284855471972377	-4.778438845758498	0	0	-1.93165441669955	-5.423703455778794	-39.9781157281101	0.170268127138891	0.00297173942977796	-4.778438845758498	0	0	0	0	0	0	-4.999076626016425	0	61.90943703775591	46.3791855709642	0	0	0	-4.999076626016425	0	61.90943703775591	46.3791855709642	0	0
10.74066	-0.4942940700147239	-5.505038910055142	-27.35534371612486	0	0.9399999999999999	0	46.67966490109365	21.2564838978328	24.95497618984653	69.60888191878054	1.214904178114669	-4.780041062247157	0	0	-1.824099812553474	-5.204215059222981	-39.96252116426466	0.246186185280503	0.004296759506069577	-4.780041062247157	0	0	0	0	0	0	-5.007362221969937	0	61.93105981201625	46.37310279977408	0	0	0	-5.007362221969937	0	61.93105981201625	46.37310279977408	0	0
10.75519	-0.6093493957692337	-5.321627434007056	-26.50436265284633	0	0.9399999999999999	0	43.14905966903599	19.8764629190127	26.0587948474616	64.21005271486132	1.120676832753454	-4.783553561448524	0	0	-1.604568847308335	-5.151954803149582	-39.93571992704723	0.3261793938824061	0.005692904375407436	-4.783553561448524	0	0	0	0	0	0	-5.025687832803693	0	61.97884140818193	46.35970921756262	0	0	0	-5.025687832803693	0	61.97884140818193	46.35970921756262	0	0
10.81024	-0.4897187150162959	-4.80754599710457	-23.33368656658603	0	0.9399999999999999	0	40.13867400788348	16.9283811345403	25.17059912798412	59.61974096833558	1.040560779083608	-4.786513469107157	0	0	-1.244026611343823	-4.779620927884369	-37.90989986085161	0.5098680104879775	0.008898875533608188	-4.786513469107157	0	0	0	0	0	0	-5.041296087789561	0	62.01948016121087	46.34836762218207	0	0	0	-5.041296087789561	0	62.01948016121087	46.34836762218207	0	0
10.87076	-0.4322537260233941	-4.21615424101768	-18.06533803771122	0	0.9399999999999999	0	38.56802271260304	12.41562382475169	22.51915185642087	54.86400470033104	0.9575575228504216	-4.790248146800656	0	0	-0.6840509169234352	-4.273653426106306	-32.62992789929548	0.4815529288991284	0.008404684131911944	-4.790248146800656	0	0	0	0	0	0	-5.061364463192245	0	62.07157135429814	46.33394472507469	0	0	0	-5.061364463192245	0	62.07157135429814	46.33394472507469	0	0
10.93467	-0.7120371350708425	-4.138228167530622	-17.44321747627213	0	0.9399999999999999	0	36.00386450347789	12.30911992936857	22.38459932176989	51.76430174959489	0.903457500526292	-4.791888779111702	0	0	-0.3340514863044144	-4.309409163171032	-32.00449423179236	0.5191189488664157	0.009060334867211039	-4.791888779111702	0	0	0	0	0	0	-5.07023730765926	0	62.09458607511096	46.32758925689465	0	0	0	-5.07023730765926	0	62.09458607511096	46.32758925689465	0	0
10.93758	-0.8015690204279784	-3.845240810333563	-14.83743614613568	0	0.9399999999999999	0	33.13877928060289	10.59692992879559	20.96238781110757	47.64815623324289	0.8316172087747477	-4.795449125075035	0	0	0.01633603017783435	-4.062115623480465	-29.38000232846071	0.5066719443194863	0.008843093655856416	-4.795449125075035	0	0	0	0	0	0	-5.089662146825149	0	62.14492482378138	46.31373775668983	0	0	0	-5.089662146825149	0	62.14492482378138	46.31373775668983	0	0
10.98451	-0.9047632251126052	-3.408019374734742	-11.26676553161235	0	0.9399999999999999	0	30.97231679776729	8.012452720311783	18.78993664280467	43.50654570786642	0.7593324687716762	-4.799484214214951	0	0	0.4529380212896776	-3.641832052968975	-25.79818466248103	0.5087093161812959	0.008878652502932479	-4.799484214214951	0	0	0	0	0	0	-5.112067257928561	0	62.20283204927729	46.29792064047121	0	0	0	-5.112067257928561	0	62.20283204927729	46.29792064047121	0	0
11.05362	-1.1937430951754	-3.05872414415255	-8.342369583375051	0	0.9399999999999999	0	28.63583356934936	6.308279102133976	16.79527939406813	39.42878681633164	0.6881621500119198	-4.804773685805212	0	0	0.9736762022614884	-3.303757994630739	-22.85828206460534	0.4982602413197054	0.008696281742810355	-4.804773685805212	0	0	0	0	0	0	-5.14197753449986	0	62.27997213733897	46.27700725491447	0	0	0	-5.14197753449986	0	62.27997213733897	46.27700725491447	0	0
11.10672	-1.422546708365042	-2.631997390001993	-5.100093924831937	0	0.9399999999999999	0	26.03076257104064	4.534776653042126	14.47993232712759	35.89709033086508	0.6265224181594162	-4.807796578157759	0	0	1.424681476449049	-2.843314409114742	-19.61018894530488	0.5055734565836436	0.008823921428073183	-4.807796578157759	0	0	0	0	0	0	-5.159447524113719	0	62.32487256132437	46.26494594404232	0	0	0	-5.159447524113719	0	62.32487256132437	46.26494594404232	0	0
